<?xml version="1.0" standalone="no"?>
<!DOCTYPE svg PUBLIC "-//W3C//DTD SVG 20010904//EN"
 "http://www.w3.org/TR/2001/REC-SVG-20010904/DTD/svg10.dtd">
<svg version="1.0" xmlns="http://www.w3.org/2000/svg"
 width="256.000000pt" height="256.000000pt" viewBox="0 0 256.000000 256.000000"
 preserveAspectRatio="xMidYMid meet">

<g transform="translate(0.000000,256.000000) scale(0.100000,-0.100000)"
fill="#ffde59" stroke="none">
<path d="M575 2124 c-178 -27 -348 -143 -428 -291 -36 -67 -67 -191 -67 -267
0 -126 57 -275 142 -371 53 -60 160 -129 240 -156 l67 -21 -41 -82 c-45 -90
-113 -193 -182 -276 -26 -31 -49 -70 -52 -89 -10 -49 20 -101 70 -125 39 -19
39 -19 110 4 308 98 562 326 675 606 81 200 114 478 76 629 -62 245 -269 424
-507 439 -40 2 -86 2 -103 0z"/>
<path d="M1837 2120 c-184 -33 -330 -136 -410 -288 -87 -165 -90 -342 -11
-509 60 -127 176 -231 309 -278 38 -13 71 -28 73 -33 8 -25 -121 -239 -203
-337 -54 -65 -65 -86 -65 -129 0 -43 38 -90 84 -106 42 -14 133 13 261 77 347
173 548 471 596 884 30 264 -38 463 -205 600 -119 97 -289 144 -429 119z"/>
</g>
</svg>
